<?xml version="1.0" encoding="utf-8"?><svg width="161" height="137" viewBox="0 0 161 137" xmlns="http://www.w3.org/2000/svg" xmlns:xlink="http://www.w3.org/1999/xlink"><svg width="19" height="11" viewBox="-5 -5 19 11" id="accordion-minus-icon" x="135" y="100.06"><defs><style>.acls-1{fill:#fff}</style></defs><path class="acls-1" d="M0 0h9v1H0z"/></svg><svg width="19" height="19" viewBox="-5 -5 19 19" id="accordion-plus-icon" x="23.97" y="113"><defs><style>.bcls-1{fill:#2a2d32;fill-rule:evenodd}</style></defs><path id="bRectangle_32_copy_3" data-name="Rectangle 32 copy 3" class="bcls-1" d="M999 1861h1v9h-1v-9zm5 4v1h-9v-1h9z" transform="translate(-995 -1861)"/></svg><svg width="20" height="19" viewBox="-5 -5 20 19" id="arrow-blue" x="98" y="87"><defs><style>.ccls-1{fill:#248cec;fill-rule:evenodd}</style></defs><path class="ccls-1" d="M5.56 0l-.894.908 2.91 2.951H0v1.283h7.578L4.665 8.093 5.559 9l4.44-4.5z"/></svg><svg width="20" height="19" viewBox="-5 -5 20 19" id="arrow-grey" x="78" y="87"><defs><style>.dcls-1{fill:#989fb3;fill-rule:evenodd}</style></defs><path id="dShape_1_copy_3" data-name="Shape 1 copy 3" class="dcls-1" d="M984.56 917l-.894.908 2.91 2.951H979v1.283h7.578l-2.913 2.951.894.907 4.44-4.5z" transform="translate(-979 -917)"/></svg><svg width="26" height="22" viewBox="-5 -5 26 22" id="email-icon" x="52" y="87"><defs><style>.ecls-1{fill:#fff;fill-rule:evenodd;opacity:.2}</style></defs><path id="efront_email" data-name="front email" class="ecls-1" d="M868 2644.97h14a1 1 0 0 1 1 1v10a1 1 0 0 1-1 1h-14a1 1 0 0 1-1-1v-10a1 1 0 0 1 1-1zm3 8.03h8v1h-8v-1zm8-6h2v2h-2v-2zm-8 4h8v1h-8v-1z" transform="translate(-867 -2644.97)"/></svg><svg width="18" height="26" viewBox="-5 -5 18 26" id="facebook-blue" x="87" y="26"><defs><style>.fcls-1{fill:#248cec;fill-rule:evenodd}</style></defs><path id="ffacebook" class="fcls-1" d="M1397.95 51.014h2.06v-3.046h-2.42v.011c-2.94.1-3.54 1.755-3.6 3.489v1.52h-2v2.983h2v8h3.01v-8h2.47l.48-2.983H1397v-.918a.984.984 0 0 1 .95-1.056z" transform="translate(-1392 -47.969)"/></svg><svg width="18" height="26" viewBox="-5 -5 18 26" id="facebook-grey" x="87" y="52"><defs><style>.gcls-1{fill-rule:evenodd;opacity:.2}</style></defs><path id="gfacebook" class="gcls-1" d="M1397.95 51.014h2.06v-3.046h-2.42v.011c-2.94.1-3.54 1.755-3.6 3.489v1.52h-2v2.983h2v8h3.01v-8h2.47l.48-2.983H1397v-.918a.984.984 0 0 1 .95-1.056z" transform="translate(-1392 -47.969)"/></svg><svg width="45" height="45" viewBox="-5 -5 45 45" id="hover-cross"><defs><style>.hcls-1,.hcls-2{fill:#fff}.hcls-2{fill-rule:evenodd}</style></defs><path class="hcls-1" d="M16 0h3v35h-3z"/><path id="hRectangle_15_copy" data-name="Rectangle 15 copy" class="hcls-2" d="M1128 1265v3h-35v-3h35z" transform="translate(-1093 -1249)"/></svg><svg width="20" height="26" viewBox="-5 -5 20 26" id="iPhone-icon" x="109" y="23"><defs><style>.icls-1{fill:#fff;fill-rule:evenodd;opacity:.2}</style></defs><path id="iiPhone_potrait" data-name="iPhone potrait" class="icls-1" d="M710 2643h8a1 1 0 0 1 1 1v14a1 1 0 0 1-1 1h-8a1 1 0 0 1-1-1v-14a1 1 0 0 1 1-1zm0 2h8v11h-8v-11zm4 12a.625.625 0 1 1-1 .5.891.891 0 0 1 1-.5z" transform="translate(-709 -2643)"/></svg><svg width="25.5" height="25.03" viewBox="-5 -5 25.5 25.03" id="linkedin-blue" x="135" y="25.03"><defs><style>.jcls-1{fill:#248cec;fill-rule:evenodd}</style></defs><path id="jlinkedin" class="jcls-1" d="M1489.02 62.984h2.99V53h-2.99v9.988zm11.67-10.332a4.486 4.486 0 0 0-3.68 1.7v-1.39H1494v10.022h3.01v-5.418a2.379 2.379 0 0 1 2.36-2.262c1.32 0 1.64 1.117 1.64 2.234v5.446h3v-5.669c0-3.938-1.87-4.663-3.32-4.663zm-10.22-4.7a1.769 1.769 0 1 0 1.95 1.761 1.864 1.864 0 0 0-1.95-1.761z" transform="translate(-1488.5 -47.938)"/></svg><svg width="25.5" height="25.03" viewBox="-5 -5 25.5 25.03" id="linkedin-grey" x="135"><defs><style>.kcls-1{fill-rule:evenodd;opacity:.2}</style></defs><path id="klinkedin" class="kcls-1" d="M1489.02 62.984h2.99V53h-2.99v9.988zm11.67-10.332a4.486 4.486 0 0 0-3.68 1.7v-1.39H1494v10.022h3.01v-5.418a2.379 2.379 0 0 1 2.36-2.262c1.32 0 1.64 1.117 1.64 2.234v5.446h3v-5.669c0-3.938-1.87-4.663-3.32-4.663zm-10.22-4.7a1.769 1.769 0 1 0 1.95 1.761 1.864 1.864 0 0 0-1.95-1.761z" transform="translate(-1488.5 -47.938)"/></svg><svg width="22" height="26" viewBox="-5 -5 22 26" id="location-icon" x="87"><defs><style>.lcls-1{fill:#fff;fill-rule:evenodd;opacity:.2}</style></defs><path id="llocation" class="lcls-1" d="M388 2643a6 6 0 0 1 6 6c0 3.31-6 10-6 10s-6-6.69-6-10a6 6 0 0 1 6-6zm0 3a3 3 0 1 1-3 3 3 3 0 0 1 3-3z" transform="translate(-382 -2643)"/></svg><svg width="42" height="42" viewBox="-5 -5 42 42" id="params-orange" x="42" y="45"><defs><style>.mcls-1{fill:#f4b60d;fill-rule:evenodd}</style></defs><path id="mparams" class="mcls-1" d="M912 754.021V751a3 3 0 0 0-6 0v3.021a4.955 4.955 0 0 0 0 7.955V777a3 3 0 1 0 6 0v-15.024a4.955 4.955 0 0 0 0-7.955zM908 751a1 1 0 0 1 2 0v2.1a5.1 5.1 0 0 0-2 0V751zm2 26a1 1 0 1 1-2 0v-14.1a4.953 4.953 0 0 0 2 0V777zm1.865-18.16c-.016.053-.03.106-.049.159a2.912 2.912 0 0 1-.378.736c0 .006-.009.01-.013.016a2.977 2.977 0 0 1-.617.626.022.022 0 0 1-.009.008 2.988 2.988 0 0 1-3.6 0 .031.031 0 0 1-.01-.008 3 3 0 0 1-.616-.626c0-.006-.01-.01-.014-.016a2.979 2.979 0 0 1-.378-.736 3.202 3.202 0 0 1-.048-.159 2.684 2.684 0 0 1 0-1.681c.015-.053.03-.106.048-.157a3.027 3.027 0 0 1 .378-.738c0-.006.01-.01.014-.015a3.055 3.055 0 0 1 .616-.628.036.036 0 0 0 .01-.007 3.077 3.077 0 0 1 .8-.43 2.824 2.824 0 0 1 2 0 3.077 3.077 0 0 1 .8.43.055.055 0 0 0 .009.007 3.035 3.035 0 0 1 .617.628l.013.015a2.959 2.959 0 0 1 .378.738c.019.051.033.1.049.157a2.684 2.684 0 0 1 0 1.68zM934 754.021V751a3 3 0 0 0-6 0v3.021a4.955 4.955 0 0 0 0 7.955V777a3 3 0 1 0 6 0v-15.024a4.955 4.955 0 0 0 0-7.955zM930 751a1 1 0 0 1 2 0v2.1a5.1 5.1 0 0 0-2 0V751zm2 26a1 1 0 1 1-2 0v-14.1a4.953 4.953 0 0 0 2 0V777zm1.865-18.16c-.016.053-.03.106-.049.159a2.912 2.912 0 0 1-.378.736c0 .006-.009.01-.013.016a2.977 2.977 0 0 1-.617.626.022.022 0 0 1-.009.008 2.977 2.977 0 0 1-.8.43 2.988 2.988 0 0 1-2.8-.43.031.031 0 0 1-.01-.008 3 3 0 0 1-.616-.626c0-.006-.01-.01-.014-.016a2.979 2.979 0 0 1-.378-.736 3.202 3.202 0 0 1-.048-.159 2.684 2.684 0 0 1 0-1.681c.015-.053.03-.106.048-.157a3.027 3.027 0 0 1 .378-.738c0-.006.01-.01.014-.015a3.055 3.055 0 0 1 .616-.628.036.036 0 0 0 .01-.007 3.077 3.077 0 0 1 .8-.43 2.824 2.824 0 0 1 2 0 3.093 3.093 0 0 1 .8.43.055.055 0 0 0 .009.007 3.035 3.035 0 0 1 .617.628l.013.015a2.959 2.959 0 0 1 .378.738c.019.051.033.1.049.157a2.684 2.684 0 0 1 0 1.68zM923 766.021V751a3 3 0 0 0-6 0v15.021a4.955 4.955 0 0 0 0 7.955V777a3 3 0 1 0 6 0v-3.023a4.955 4.955 0 0 0 0-7.956zM919 751a1 1 0 0 1 2 0v14.1a5.1 5.1 0 0 0-2 0V751zm2 26a1 1 0 1 1-2 0v-2.1a4.953 4.953 0 0 0 2 0v2.1zm1.865-6.16c-.015.053-.03.106-.049.159a2.945 2.945 0 0 1-.378.736.093.093 0 0 1-.013.015 2.958 2.958 0 0 1-.617.627.022.022 0 0 1-.009.008A3.118 3.118 0 0 1 920 773a3.118 3.118 0 0 1-1.8-.616.031.031 0 0 1-.01-.008 2.978 2.978 0 0 1-.616-.627s-.01-.009-.014-.015a2.979 2.979 0 0 1-.378-.736 3.202 3.202 0 0 1-.048-.159 2.684 2.684 0 0 1 0-1.681c.015-.053.03-.106.048-.157a3.027 3.027 0 0 1 .378-.738c0-.006.01-.01.014-.015a3.026 3.026 0 0 1 .616-.627.087.087 0 0 0 .01-.008 3.077 3.077 0 0 1 .8-.43 2.824 2.824 0 0 1 2 0 3.093 3.093 0 0 1 .8.43l.009.008a3.006 3.006 0 0 1 .617.627.093.093 0 0 1 .013.015 2.992 2.992 0 0 1 .378.738c.019.051.034.1.049.157a2.684 2.684 0 0 1-.001 1.681z" transform="translate(-904 -748)"/></svg><svg width="25.06" height="25" viewBox="-5 -5 25.06 25" id="rss-blue" x="135" y="50.06"><defs><style>.ncls-1{fill:#248cec;fill-rule:evenodd}</style></defs><path id="nrss" class="ncls-1" d="M1457.99 59.968a2.016 2.016 0 1 0 2.02 2.016 2.016 2.016 0 0 0-2.02-2.016zm-1.85-5.913c-.04 0-.07.007-.11.007v2.792c.04 0 .07-.006.11-.006a7 7 0 0 1 7.01 6.979c0 .059-.01.116-.01.175h2.8c0-.059.01-.116.01-.175a9.8 9.8 0 0 0-9.81-9.772zm0-5.058h-.11v2.792h.11a12.076 12.076 0 0 1 12.09 12.04c0 .059-.01.116-.01.175h2.8c0-.059.01-.116.01-.175A14.878 14.878 0 0 0 1456.14 49z" transform="translate(-1455.97 -49)"/></svg><svg width="25.06" height="25" viewBox="-5 -5 25.06 25" id="rss-grey" x="135" y="75.06"><defs><style>.ocls-1{fill-rule:evenodd;opacity:.2}</style></defs><path id="orss" class="ocls-1" d="M1457.99 59.968a2.016 2.016 0 1 0 2.02 2.016 2.016 2.016 0 0 0-2.02-2.016zm-1.85-5.913c-.04 0-.07.007-.11.007v2.792c.04 0 .07-.006.11-.006a7 7 0 0 1 7.01 6.979c0 .059-.01.116-.01.175h2.8c0-.059.01-.116.01-.175a9.8 9.8 0 0 0-9.81-9.772zm0-5.058h-.11v2.792h.11a12.076 12.076 0 0 1 12.09 12.04c0 .059-.01.116-.01.175h2.8c0-.059.01-.116.01-.175A14.878 14.878 0 0 0 1456.14 49z" transform="translate(-1455.97 -49)"/></svg><svg width="23.97" height="23.97" viewBox="-5 -5 23.97 23.97" id="search-icon" y="113"><defs><style>.pcls-1{fill:#fff;fill-rule:evenodd;opacity:.2}</style></defs><path id="psearch" class="pcls-1" d="M1509.68 131a5.677 5.677 0 1 1-5.68 5.677 5.675 5.675 0 0 1 5.68-5.677zm3.61 9.584l.29-.3a.429.429 0 0 1 .6 0l1.48 1.484a.41.41 0 0 1 0 .594l-.3.3a.415.415 0 0 1-.59 0l-1.48-1.484a.41.41 0 0 1 0-.595zm.88 1.586l1-1a.464.464 0 0 1 .66 0l2 2a.477.477 0 0 1 0 .665l-1 1a.465.465 0 0 1-.66 0l-2-2a.477.477 0 0 1 0-.666zm-4.49-8.983a3.49 3.49 0 1 1-3.49 3.49 3.494 3.494 0 0 1 3.49-3.491z" transform="translate(-1504 -131)"/></svg><svg width="42" height="42" viewBox="-5 -5 42 42" id="settings-orange" y="45"><defs><style>.qcls-1{fill:#f4b60d;fill-rule:evenodd}</style></defs><path id="qsettings" class="qcls-1" d="M533.391 760.678l-3.065-.614a12.092 12.092 0 0 0-.536-1.289l1.735-2.6a2 2 0 0 0-.25-2.523l-1.923-1.924a2 2 0 0 0-2.524-.25l-2.6 1.736a11.994 11.994 0 0 0-1.29-.537l-.614-3.065A2 2 0 0 0 520.36 748h-2.72a2 2 0 0 0-1.961 1.608l-.615 3.065a12.1 12.1 0 0 0-1.289.537l-2.6-1.736a2 2 0 0 0-2.524.25l-1.924 1.924a2 2 0 0 0-.249 2.523l1.735 2.6a11.9 11.9 0 0 0-.536 1.29l-3.066.613a2 2 0 0 0-1.611 1.965v2.721a2 2 0 0 0 1.608 1.961l3.066.614a12.092 12.092 0 0 0 .536 1.289l-1.735 2.6a2 2 0 0 0 .249 2.523l1.924 1.924a2 2 0 0 0 2.524.25l2.6-1.735a11.989 11.989 0 0 0 1.29.536l.614 3.065A2 2 0 0 0 517.64 780h2.72a2 2 0 0 0 1.961-1.609l.614-3.065a12.023 12.023 0 0 0 1.29-.536l2.6 1.735a2 2 0 0 0 2.524-.25l1.923-1.924a2 2 0 0 0 .25-2.523l-1.735-2.6a11.989 11.989 0 0 0 .536-1.29l3.065-.613A2 2 0 0 0 535 765.36v-2.721a2 2 0 0 0-1.609-1.961zm-3.457 5.295a2 2 0 0 0-1.5 1.3 10.049 10.049 0 0 1-.447 1.075 2 2 0 0 0 .136 1.982l1.735 2.6-1.924 1.924-2.6-1.735a2 2 0 0 0-1.981-.137 10 10 0 0 1-1.075.448 2 2 0 0 0-1.3 1.5l-.618 3.07h-2.72l-.614-3.067a2 2 0 0 0-1.3-1.5 9.981 9.981 0 0 1-1.076-.447 1.993 1.993 0 0 0-1.981.136l-2.6 1.735-1.923-1.924 1.735-2.6a2 2 0 0 0 .137-1.981 10.1 10.1 0 0 1-.449-1.075 2 2 0 0 0-1.5-1.3L505 765.36v-2.721l3.066-.613a2 2 0 0 0 1.5-1.3 10.055 10.055 0 0 1 .448-1.075 2 2 0 0 0-.136-1.981l-1.735-2.6 1.923-1.924 2.6 1.736a2 2 0 0 0 1.98.136 10.02 10.02 0 0 1 1.076-.448 2 2 0 0 0 1.3-1.5l.618-3.07h2.72l.614 3.066a2 2 0 0 0 1.3 1.5 9.964 9.964 0 0 1 1.075.447 2 2 0 0 0 1.982-.135l2.6-1.736 1.924 1.924-1.735 2.6a2 2 0 0 0-.137 1.98 10.09 10.09 0 0 1 .448 1.075 2 2 0 0 0 1.5 1.3l3.069.618v2.721zM519 757a7 7 0 1 0 7 7 7 7 0 0 0-7-7zm0 13.125a6.125 6.125 0 1 1 6.125-6.125 6.127 6.127 0 0 1-6.125 6.125zM519 760a4 4 0 1 0 4 4 4 4 0 0 0-4-4zm0 7a3 3 0 1 1 3-3 3 3 0 0 1-3 3z" transform="translate(-503 -748)"/></svg><svg width="26" height="26" viewBox="-5 -5 26 26" id="skype-blue" y="87"><defs><style>.rcls-1{fill:#248cec;fill-rule:evenodd}</style></defs><path id="rskype" class="rcls-1" d="M1535.83 57.083a7.493 7.493 0 0 0 .09-1.065 7.085 7.085 0 0 0-8.21-7.042 4.063 4.063 0 0 0-5.89 5.531 6.844 6.844 0 0 0-.16 1.511 7.12 7.12 0 0 0 8.6 6.978 4.064 4.064 0 0 0 5.57-5.913zm-3.71 2.041a2.775 2.775 0 0 1-1.24.937 4.928 4.928 0 0 1-1.92.34 4.6 4.6 0 0 1-2.2-.464 2.775 2.775 0 0 1-1-.891 1.889 1.889 0 0 1-.39-1.082.7.7 0 0 1 .23-.522.834.834 0 0 1 .59-.218.726.726 0 0 1 .49.17 1.307 1.307 0 0 1 .34.5 3.687 3.687 0 0 0 .37.661 1.487 1.487 0 0 0 .57.438 2.221 2.221 0 0 0 .95.173 2.294 2.294 0 0 0 1.32-.347 1.024 1.024 0 0 0 .51-.869.889.889 0 0 0-.28-.669 1.787 1.787 0 0 0-.71-.394c-.28-.09-.67-.186-1.15-.288a9.249 9.249 0 0 1-1.63-.488 2.549 2.549 0 0 1-1.04-.764 1.849 1.849 0 0 1-.38-1.2 1.946 1.946 0 0 1 .4-1.216 2.519 2.519 0 0 1 1.18-.817 5.145 5.145 0 0 1 1.8-.285 4.827 4.827 0 0 1 1.44.188 3.061 3.061 0 0 1 1 .5 2.1 2.1 0 0 1 .59.659 1.445 1.445 0 0 1 .18.671.737.737 0 0 1-.23.541.751.751 0 0 1-.57.24.712.712 0 0 1-.48-.145 1.737 1.737 0 0 1-.35-.472 2.232 2.232 0 0 0-.59-.732 1.852 1.852 0 0 0-1.11-.263 2.046 2.046 0 0 0-1.14.285.811.811 0 0 0-.43.686.7.7 0 0 0 .14.43 1.277 1.277 0 0 0 .41.31 3.117 3.117 0 0 0 .52.205c.18.047.47.12.88.214q.75.164 1.38.362a4.44 4.44 0 0 1 1.05.48 2.008 2.008 0 0 1 .67.716 2.054 2.054 0 0 1 .25 1.061 2.3 2.3 0 0 1-.42 1.359z" transform="translate(-1521 -48)"/></svg><svg width="26" height="26" viewBox="-5 -5 26 26" id="skype-grey" x="109" y="49"><defs><style>.scls-1{fill-rule:evenodd;opacity:.2}</style></defs><path id="sskype" class="scls-1" d="M1535.83 57.083a7.493 7.493 0 0 0 .09-1.065 7.085 7.085 0 0 0-8.21-7.042 4.063 4.063 0 0 0-5.89 5.531 6.844 6.844 0 0 0-.16 1.511 7.12 7.12 0 0 0 8.6 6.978 4.064 4.064 0 0 0 5.57-5.913zm-3.71 2.041a2.775 2.775 0 0 1-1.24.937 4.928 4.928 0 0 1-1.92.34 4.6 4.6 0 0 1-2.2-.464 2.775 2.775 0 0 1-1-.891 1.889 1.889 0 0 1-.39-1.082.7.7 0 0 1 .23-.522.834.834 0 0 1 .59-.218.726.726 0 0 1 .49.17 1.307 1.307 0 0 1 .34.5 3.687 3.687 0 0 0 .37.661 1.487 1.487 0 0 0 .57.438 2.221 2.221 0 0 0 .95.173 2.294 2.294 0 0 0 1.32-.347 1.024 1.024 0 0 0 .51-.869.889.889 0 0 0-.28-.669 1.787 1.787 0 0 0-.71-.394c-.28-.09-.67-.186-1.15-.288a9.249 9.249 0 0 1-1.63-.488 2.549 2.549 0 0 1-1.04-.764 1.849 1.849 0 0 1-.38-1.2 1.946 1.946 0 0 1 .4-1.216 2.519 2.519 0 0 1 1.18-.817 5.145 5.145 0 0 1 1.8-.285 4.827 4.827 0 0 1 1.44.188 3.061 3.061 0 0 1 1 .5 2.1 2.1 0 0 1 .59.659 1.445 1.445 0 0 1 .18.671.737.737 0 0 1-.23.541.751.751 0 0 1-.57.24.712.712 0 0 1-.48-.145 1.737 1.737 0 0 1-.35-.472 2.232 2.232 0 0 0-.59-.732 1.852 1.852 0 0 0-1.11-.263 2.046 2.046 0 0 0-1.14.285.811.811 0 0 0-.43.686.7.7 0 0 0 .14.43 1.277 1.277 0 0 0 .41.31 3.117 3.117 0 0 0 .52.205c.18.047.47.12.88.214q.75.164 1.38.362a4.44 4.44 0 0 1 1.05.48 2.008 2.008 0 0 1 .67.716 2.054 2.054 0 0 1 .25 1.061 2.3 2.3 0 0 1-.42 1.359z" transform="translate(-1521 -48)"/></svg><svg width="42" height="36" viewBox="-5 -5 42 36" id="truck-orange" x="45"><defs><style>.tcls-1{fill:#f4b60d;fill-rule:evenodd}</style></defs><path id="ttruck" class="tcls-1" d="M1327.83 759.445a.993.993 0 0 0-.83-.445h-1a1 1 0 0 0-1 1v6a1 1 0 0 0 1 1h4a1 1 0 0 0 1-1v-1.5a1 1 0 0 0-.17-.555zM1330 766h-4v-6h1l3 4.5v1.5zm4.5-2.665l-4-6A3.011 3.011 0 0 0 1328 756h-4v-2a3.006 3.006 0 0 0-3-3h-15a3.006 3.006 0 0 0-3 3v11a3.005 3.005 0 0 0 3 3v3a3.006 3.006 0 0 0 3 3h1.14a3.984 3.984 0 0 0 7.72 0h5.28a3.984 3.984 0 0 0 7.72 0h1.14a3.006 3.006 0 0 0 3-3v-6a2.989 2.989 0 0 0-.5-1.665zM1306 766a1 1 0 0 1-1-1v-11a1 1 0 0 1 1-1h15a1 1 0 0 1 1 1v11a1 1 0 0 1-1 1h-15zm8 9a2 2 0 1 1 2-2 2 2 0 0 1-2 2zm13 0a2 2 0 1 1 2-2 2 2 0 0 1-2 2zm6-4a1 1 0 0 1-1 1h-1.14a3.983 3.983 0 0 0-7.72 0h-5.28a3.983 3.983 0 0 0-7.72 0H1309a1 1 0 0 1-1-1v-3h13a3.005 3.005 0 0 0 3-3v-7h4a1 1 0 0 1 .83.445l4 6a1 1 0 0 1 .17.555v6z" transform="translate(-1303 -751)"/></svg><svg width="26" height="23" viewBox="-5 -5 26 23" id="twitter-blue" x="109"><defs><style>.ucls-1{fill:#248cec;fill-rule:evenodd}</style></defs><path id="utwitter" class="ucls-1" d="M1438.56 51.562a5.811 5.811 0 0 1-1.83.519 3.545 3.545 0 0 0 1.38-1.793 5.424 5.424 0 0 1-2.06.73 3.3 3.3 0 0 0-5.69 2.28 3.549 3.549 0 0 0 .08.735 9.52 9.52 0 0 1-6.99-3.424 3.308 3.308 0 0 0 1 4.36 2.132 2.132 0 0 1-1.44-.372 3.182 3.182 0 0 0 2.55 3.225 2.608 2.608 0 0 1-1.38.1 3.132 3.132 0 0 0 2.95 2.241 5.4 5.4 0 0 1-4.57 1.369 9.92 9.92 0 0 0 5.17 1.46 9.162 9.162 0 0 0 9.23-9.64v-.102a5.54 5.54 0 0 0 1.6-1.688z" transform="translate(-1422.56 -50)"/></svg><svg width="26" height="23" viewBox="-5 -5 26 23" id="twitter-grey" x="26" y="87"><defs><style>.vcls-1{fill-rule:evenodd;opacity:.2}</style></defs><path id="vtwitter" class="vcls-1" d="M1438.56 51.562a5.811 5.811 0 0 1-1.83.519 3.545 3.545 0 0 0 1.38-1.793 5.424 5.424 0 0 1-2.06.73 3.3 3.3 0 0 0-5.69 2.28 3.549 3.549 0 0 0 .08.735 9.52 9.52 0 0 1-6.99-3.424 3.308 3.308 0 0 0 1 4.36 2.132 2.132 0 0 1-1.44-.372 3.182 3.182 0 0 0 2.55 3.225 2.608 2.608 0 0 1-1.38.1 3.132 3.132 0 0 0 2.95 2.241 5.4 5.4 0 0 1-4.57 1.369 9.92 9.92 0 0 0 5.17 1.46 9.162 9.162 0 0 0 9.23-9.64v-.102a5.54 5.54 0 0 0 1.6-1.688z" transform="translate(-1422.56 -50)"/></svg></svg>